# xmcd
#
# Track frame offsets:
#	150
#	16183
#	24383
#	38156
#	47114
#	56637
#	66814
#	88184
#	96741
#	109200
#	122659
#	143380
#	151766
#	177231
#	190737
#	202833
#	217681
#
# Disc length: 3039 seconds
#
# Revision: 0
# Processed by: cddbd v1.5.1PL0 Copyright (c) Steve Scherf et al.
# Submitted via: dBpowerAMP V4.0
#
DISCID=dd0bdd11
DTITLE=¸t¸g-ÂÂ¬ù - Disc 38
DYEAR=1900
DGENRE=
TTITLE0=¸Ö½g²Ä25½g
TTITLE1=¸Ö½g²Ä26½g
TTITLE2=¸Ö½g²Ä27½g
TTITLE3=¸Ö½g²Ä28½g
TTITLE4=¸Ö½g²Ä29½g
TTITLE5=¸Ö½g²Ä30½g
TTITLE6=¸Ö½g²Ä31½g
TTITLE7=¸Ö½g²Ä32½g
TTITLE8=¸Ö½g²Ä33½g
TTITLE9=¸Ö½g²Ä34½g
TTITLE10=¸Ö½g²Ä35½g
TTITLE11=¸Ö½g²Ä36½g
TTITLE12=¸Ö½g²Ä37½g
TTITLE13=¸Ö½g²Ä38½g
TTITLE14=¸Ö½g²Ä39½g
TTITLE15=¸Ö½g²Ä40½g
TTITLE16=¸Ö½g²Ä41½g
EXTD=
EXTT0=
EXTT1=
EXTT2=
EXTT3=
EXTT4=
EXTT5=
EXTT6=
EXTT7=
EXTT8=
EXTT9=
EXTT10=
EXTT11=
EXTT12=
EXTT13=
EXTT14=
EXTT15=
EXTT16=
PLAYORDER=
